<?xml version="1.0" encoding="utf-8"?>
<!-- Generator: Adobe Illustrator 21.1.0, SVG Export Plug-In . SVG Version: 6.00 Build 0)  -->
<svg version="1.1" id="Layer_1" xmlns="http://www.w3.org/2000/svg" xmlns:xlink="http://www.w3.org/1999/xlink" x="0px" y="0px"
	 viewBox="0 0 400 223.4" style="enable-background:new 0 0 400 223.4;" xml:space="preserve">
<style type="text/css">
	.st0{fill:#929497;}
	.st1{fill:#C43426;}
	.st2{fill:#F9A51A;}
	.st3{fill:#009CC9;}
	.st4{fill:#FFE080;}
</style>
<g>
	<path class="st0" d="M205.5,162.7v-31.5c0-11.5,1.1-17-10.9-17c-14.9,0-13.8,10.3-13.8,20.7v27.8H167v-59.8h12v4.8
		c3.4-3.1,8.8-5.7,17.3-5.7c24.1,0,23.1,15.2,23.1,28.2v32.6H205.5z"/>
	<path class="st0" d="M66.4,102c-10,0-25.5,3.3-26.4,13.9c-0.5,2.6,0.6,4.8,3.4,6.4c3.7,2.1,6.9,1.2,9-2.4c0.2-0.3,0.3-0.6,0.5-0.9
		c3.4-5.4,7.8-5.2,12.9-5.2c12.1,0,12.6,3.6,12.6,11.5H63c-12.7,0-25.5,2-25.5,19.3c0,14.6,9.1,19.1,23.3,19.1
		c8.6,0,14.8-2.6,18.6-5.9v4.9h12.4v-38.9C91.8,108.3,82.5,102,66.4,102 M63,152.3c-9.4,0-11.6-2.8-11.6-8c0-6.4,2.7-7.8,11.1-7.8
		h16C78.6,146.9,77.2,152.3,63,152.3"/>
	<path class="st0" d="M281.8,151.4c-12.5,0-14-4.9-14-18.6c0-13.7,1.5-18.6,14-18.6c4.9,0,11.9,0,12,6.6h0c0,4.1,2.3,6.5,6.5,6.5
		c4.2,0,6.5-2.4,6.5-6.6c0-0.3,0-0.6,0-0.9c-0.6-15.3-14.7-17.8-25.4-17.8c-24.9,0-27.4,13.7-27.4,30.6c0,16.9,2.6,31.1,27.4,31.1
		c11,0,25.5-2.7,25.5-18.8h-13.1C293.7,151.4,286.7,151.4,281.8,151.4"/>
	<rect x="229.7" y="102.2" class="st0" width="14" height="60.6"/>
	<path class="st0" d="M131.1,151.4c-12.5,0-14-4.9-14-18.6c0-13.7,1.5-18.6,14-18.6c4.9,0,11.9,0,12,6.6h0c0,4.1,2.3,6.5,6.5,6.5
		c4.2,0,6.6-2.4,6.6-6.6c0-0.3,0-0.6,0-0.9c-0.6-15.3-14.7-17.8-25.4-17.8c-24.9,0-27.4,13.7-27.4,30.6c0,16.9,2.6,31.1,27.4,31.1
		c11,0,25.5-2.7,25.5-18.8h-13.1C143,151.4,136,151.4,131.1,151.4"/>
	<path class="st0" d="M21,144.8l0-63.4H7.2l0,59.5c0,11.5,4.9,18.1,13.8,20.8c2.6,0.8,5.6,1.3,8.8,1.4v-12.1
		C23.1,150.6,21.6,148.4,21,144.8"/>
	<path class="st1" d="M359.4,135.5c-21.6,0-33.4-12.4-33.4-33.4c0-21.6,12.4-32.9,33.4-32.9c21,0,33.4,11.3,33.4,32.9
		C392.8,123.1,380.9,135.5,359.4,135.5"/>
	<path class="st2" d="M366.4,114.9c-12.9,0-20.1-7.4-20.1-20.1c0-12.9,7.4-19.7,20.1-19.7c12.6,0,20.1,6.8,20.1,19.7
		C386.5,107.4,379.4,114.9,366.4,114.9"/>
	<path class="st3" d="M370.6,104.8c-7.8,0-12-4.5-12-12c0-7.8,4.5-11.8,12-11.8c7.6,0,12,4.1,12,11.8
		C382.7,100.3,378.4,104.8,370.6,104.8"/>
	<path class="st3" d="M350.5,183.5c-12.9,0-20.1-7.4-20.1-20.1c0-12.9,7.4-19.7,20.1-19.7c12.6,0,20.1,6.8,20.1,19.7
		C370.5,176,363.4,183.5,350.5,183.5"/>
	<path class="st4" d="M347.2,178.6c-7.8,0-12-4.5-12-12c0-7.8,4.5-11.9,12-11.9c7.6,0,12,4.1,12,11.9
		C359.2,174.1,354.9,178.6,347.2,178.6"/>
	<path class="st2" d="M345.8,174.6c-4.7,0-7.2-2.7-7.2-7.2c0-4.7,2.7-7.1,7.2-7.1c4.5,0,7.2,2.4,7.2,7.1
		C353,172,350.5,174.6,345.8,174.6"/>
	<path class="st3" d="M319.1,71.5c-12.9,0-20.1-7.4-20.1-20.1c0-12.9,7.4-19.7,20.1-19.7c12.6,0,20.1,6.8,20.1,19.7
		C339.2,64.1,332.1,71.5,319.1,71.5"/>
	<path class="st1" d="M321.3,67.7c-7.8,0-12-4.5-12-12c0-7.8,4.5-11.8,12-11.8c7.6,0,12,4.1,12,11.8
		C333.4,63.2,329.1,67.7,321.3,67.7"/>
	<path class="st2" d="M323.1,64.5c-4.7,0-7.2-2.7-7.2-7.2c0-4.7,2.7-7.1,7.2-7.1c4.5,0,7.2,2.4,7.2,7.1
		C330.3,61.8,327.8,64.5,323.1,64.5"/>
	<path class="st1" d="M348,32c-7.8,0-12-4.5-12-12c0-7.8,4.5-11.8,12-11.8c7.6,0,12,4.1,12,11.8C360,27.6,355.8,32,348,32"/>
	<path class="st4" d="M346,29.1c-4.7,0-7.2-2.7-7.2-7.2c0-4.7,2.7-7.1,7.2-7.1c4.5,0,7.2,2.4,7.2,7.1
		C353.2,26.4,350.7,29.1,346,29.1"/>
	<path class="st2" d="M342.4,215.3c-7.8,0-12-4.5-12-12c0-7.8,4.5-11.8,12-11.8c7.6,0,12,4.1,12,11.8
		C354.4,210.8,350.1,215.3,342.4,215.3"/>
	<path class="st1" d="M340.4,212.3c-4.7,0-7.2-2.7-7.2-7.2c0-4.7,2.7-7.1,7.2-7.1c4.5,0,7.2,2.4,7.2,7.1
		C347.6,209.7,345,212.3,340.4,212.3"/>
</g>
</svg>
